# This file uses centimeters as units for non-parametric coordinates.

mtllib Floor_Bend_LP.mtl
g default
v 0.000000 0.000000 0.000000
v 3.000000 0.000000 0.000000
v 3.000000 0.000000 -3.000000
v 2.721318 0.000000 -2.979089
v 2.440833 0.000000 -2.931912
v 2.161587 0.000000 -2.854157
v 1.886803 0.000000 -2.747093
v 1.619809 0.000000 -2.612411
v 1.363948 0.000000 -2.452160
v 1.122485 0.000000 -2.268660
v 0.898514 0.000000 -2.064426
v 0.694876 0.000000 -1.842090
v 0.514091 0.000000 -1.604335
v 0.358303 0.000000 -1.353844
v 0.229254 0.000000 -1.093262
v 0.128262 0.000000 -0.825173
v 0.056230 0.000000 -0.552091
v 0.013578 0.000000 -0.276381
vt 0.000000 0.000000
vt 1.000000 0.000000
vt 1.000000 1.000000
vt 0.907106 0.993030
vt 0.813611 0.977304
vt 0.720529 0.951386
vt 0.628934 0.915698
vt 0.539936 0.870804
vt 0.454649 0.817387
vt 0.374162 0.756220
vt 0.299505 0.688142
vt 0.231625 0.614030
vt 0.171364 0.534778
vt 0.119434 0.451281
vt 0.076418 0.364421
vt 0.042754 0.275058
vt 0.018743 0.184030
vt 0.004526 0.092127
vn 0.000000 1.000000 0.000000
vn 0.000000 1.000000 0.000000
vn 0.000000 1.000000 0.000000
vn 0.000000 1.000000 0.000000
vn 0.000000 1.000000 0.000000
vn 0.000000 1.000000 0.000000
vn 0.000000 1.000000 0.000000
vn 0.000000 1.000000 0.000000
vn 0.000000 1.000000 0.000000
vn 0.000000 1.000000 0.000000
vn 0.000000 1.000000 0.000000
vn 0.000000 1.000000 0.000000
vn 0.000000 1.000000 0.000000
vn 0.000000 1.000000 0.000000
vn 0.000000 1.000000 0.000000
vn 0.000000 1.000000 0.000000
vn 0.000000 1.000000 0.000000
vn 0.000000 1.000000 0.000000
s off
g Floor_Bend_LP
usemtl initialShadingGroup
f 1/1/1 2/2/2 3/3/3 4/4/4 5/5/5 6/6/6 7/7/7 8/8/8 9/9/9 10/10/10 11/11/11 12/12/12 13/13/13 14/14/14 15/15/15 16/16/16 17/17/17 18/18/18
