# This file uses centimeters as units for non-parametric coordinates.

mtllib Inside_Bend_LP.mtl
g default
v 1.000000 0.000000 -0.000000
v 0.500000 0.000000 0.000000
v -0.000000 0.000000 0.000000
v 1.000000 1.000000 -0.000000
v 0.500000 1.000000 0.000000
v -0.000000 0.600000 0.000000
v 1.530632 1.000000 -1.379588
v 1.190928 1.000000 -1.714242
v 0.795203 0.600000 -2.064426
v 1.528766 0.000000 -1.381262
v 1.188567 0.000000 -1.716310
v 0.801540 0.000000 -2.064426
v 3.000000 1.000000 -2.000000
v 3.000000 1.000000 -2.494903
v 3.000000 0.600000 -3.000000
v 3.000000 0.000000 -2.000000
v 3.000000 0.000000 -2.494903
v 3.000000 0.000000 -3.000000
v 1.102458 1.000000 -0.729930
v 1.102465 0.000000 -0.729920
v 0.667400 0.000000 -0.897711
v 0.200023 0.000000 -1.093262
v 0.200023 0.600000 -1.093262
v 0.667947 1.000000 -0.897187
v 1.283661 0.000000 -1.082979
v 1.284480 1.000000 -1.082183
v 0.889253 1.000000 -1.322001
v 0.442362 0.600000 -1.604335
v 0.444617 0.000000 -1.604335
v 0.887956 0.000000 -1.323288
v 1.031289 1.000000 -0.358829
v 1.031289 0.000000 -0.358829
v 0.544424 0.000000 -0.452685
v 0.052131 0.000000 -0.552091
v 0.052131 0.600000 -0.552091
v 0.544424 1.000000 -0.452685
v 1.007690 1.000000 -0.178894
v 1.007697 0.000000 -0.178894
v 0.511170 0.000000 -0.227372
v 0.013578 0.000000 -0.276381
v 0.013578 0.600000 -0.276381
v 0.511170 1.000000 -0.227372
v 1.054229 0.000000 -0.547069
v 1.054229 1.000000 -0.547069
v 0.595346 1.000000 -0.675952
v 0.114571 0.600000 -0.825173
v 0.114571 0.000000 -0.825173
v 0.595152 0.000000 -0.676141
v 1.187152 1.000000 -0.908336
v 1.186782 0.000000 -0.908708
v 0.765110 0.000000 -1.114137
v 0.308096 0.000000 -1.353844
v 0.307594 0.600000 -1.353844
v 0.766073 1.000000 -1.113243
v 1.392266 0.000000 -1.240702
v 1.393603 1.000000 -1.239479
v 1.029601 1.000000 -1.524157
v 0.605707 0.600000 -1.842090
v 0.609966 0.000000 -1.842090
v 1.027677 0.000000 -1.525858
v 2.261103 1.000000 -1.818529
v 2.261189 0.000000 -1.818488
v 2.052091 0.000000 -2.276999
v 1.812081 0.000000 -2.747093
v 1.812081 0.600000 -2.747093
v 2.052233 1.000000 -2.276899
v 1.866302 1.000000 -1.633630
v 1.866339 0.000000 -1.633613
v 1.583159 0.000000 -2.040717
v 1.264673 0.000000 -2.452160
v 1.253452 0.600000 -2.452160
v 1.586705 1.000000 -2.037810
v 2.643789 0.000000 -1.944381
v 2.643789 1.000000 -1.944381
v 2.532163 1.000000 -2.438198
v 2.417593 0.600000 -2.931912
v 2.417593 0.000000 -2.931912
v 2.532163 0.000000 -2.438198
v 2.821424 0.000000 -1.982051
v 2.821424 1.000000 -1.982051
v 2.768554 1.000000 -2.480638
v 2.715089 0.600000 -2.979089
v 2.715089 0.000000 -2.979089
v 2.768554 0.000000 -2.480638
v 2.457466 1.000000 -1.888654
v 2.457466 0.000000 -1.888654
v 2.294562 0.000000 -2.368620
v 2.114055 0.000000 -2.854157
v 2.114055 0.600000 -2.854157
v 2.294562 1.000000 -2.368620
v 2.060969 0.000000 -1.734450
v 2.060969 1.000000 -1.734450
v 1.815099 1.000000 -2.166664
v 1.519520 0.600000 -2.612411
v 1.531371 0.000000 -2.612411
v 1.811333 0.000000 -2.169652
v 1.687026 1.000000 -1.514883
v 1.685313 0.000000 -1.516399
v 1.374136 0.000000 -1.889026
v 1.017357 0.000000 -2.268660
v 1.008874 0.600000 -2.268660
v 1.377004 1.000000 -1.886586
vt 0.438462 0.486385
vt 0.517299 0.486604
vt 0.201948 0.485726
vt 0.280786 0.485946
vt 0.596137 0.486824
vt 0.100987 0.485445
vt 0.102304 0.012419
vt 0.518616 0.013578
vt 0.439779 0.013358
vt 0.007699 0.012155
vt 0.622896 0.151202
vt 0.722259 0.151295
vt 0.622742 0.316806
vt 0.788346 0.316961
vt 0.788423 0.234159
vt 0.622819 0.234004
vt 0.282103 0.012919
vt 0.203265 0.012700
vt 0.597454 0.013797
vt 0.006381 0.485182
vt 0.280786 0.989966
vt 0.201948 0.989747
vt 0.203265 0.516720
vt 0.282103 0.516940
vt 0.100987 0.989465
vt 0.102304 0.516439
vt 0.787705 0.992886
vt 0.704101 0.992685
vt 0.704503 0.825478
vt 0.788106 0.825679
vt 0.620659 0.925602
vt 0.620899 0.825278
vt 0.439779 0.517378
vt 0.518616 0.517598
vt 0.517299 0.990624
vt 0.438462 0.990405
vt 0.597454 0.517818
vt 0.596137 0.990844
vt 0.006381 0.989202
vt 0.007699 0.516176
vt 0.281445 0.249433
vt 0.439120 0.249872
vt 0.517958 0.250091
vt 0.596796 0.250311
vt 0.007040 0.248669
vt 0.101645 0.248932
vt 0.202607 0.249213
vt 0.439449 0.131615
vt 0.281774 0.131176
vt 0.202936 0.130956
vt 0.101974 0.130675
vt 0.597125 0.132054
vt 0.007369 0.130412
vt 0.518287 0.131834
vt 0.281115 0.367689
vt 0.438791 0.368128
vt 0.517629 0.368348
vt 0.596466 0.368567
vt 0.006711 0.366925
vt 0.101316 0.367189
vt 0.202278 0.367470
vt 0.280951 0.426818
vt 0.438626 0.427256
vt 0.517464 0.427476
vt 0.596302 0.427696
vt 0.006546 0.426053
vt 0.101151 0.426317
vt 0.202113 0.426598
vt 0.438955 0.309000
vt 0.281280 0.308561
vt 0.202442 0.308341
vt 0.101481 0.308060
vt 0.596631 0.309439
vt 0.006875 0.307797
vt 0.517793 0.309219
vt 0.281609 0.190304
vt 0.439285 0.190743
vt 0.518122 0.190963
vt 0.596960 0.191182
vt 0.007205 0.189540
vt 0.101810 0.189804
vt 0.202771 0.190085
vt 0.439614 0.072487
vt 0.281938 0.072048
vt 0.203101 0.071828
vt 0.102139 0.071547
vt 0.597289 0.072926
vt 0.007534 0.071284
vt 0.518452 0.072706
vt 0.281445 0.753453
vt 0.439120 0.753892
vt 0.517958 0.754111
vt 0.596796 0.754331
vt 0.007040 0.752689
vt 0.101645 0.752952
vt 0.202607 0.753233
vt 0.281115 0.871709
vt 0.438791 0.872148
vt 0.517629 0.872368
vt 0.596466 0.872587
vt 0.006711 0.870945
vt 0.101316 0.871209
vt 0.202278 0.871490
vt 0.439449 0.635635
vt 0.281774 0.635196
vt 0.202936 0.634977
vt 0.101974 0.634696
vt 0.597125 0.636074
vt 0.007369 0.634432
vt 0.518287 0.635855
vt 0.439614 0.576507
vt 0.281938 0.576068
vt 0.203101 0.575848
vt 0.102139 0.575567
vt 0.597289 0.576946
vt 0.007534 0.575304
vt 0.518452 0.576726
vt 0.281609 0.694324
vt 0.439285 0.694763
vt 0.518122 0.694983
vt 0.596960 0.695202
vt 0.007205 0.693560
vt 0.101810 0.693824
vt 0.202771 0.694105
vt 0.438955 0.813020
vt 0.281280 0.812581
vt 0.202442 0.812362
vt 0.101481 0.812081
vt 0.596631 0.813459
vt 0.006875 0.811817
vt 0.517793 0.813240
vt 0.280951 0.930838
vt 0.438626 0.931277
vt 0.517464 0.931496
vt 0.596302 0.931716
vt 0.006546 0.930074
vt 0.101151 0.930337
vt 0.202113 0.930618
vn 0.000000 0.000000 1.000000
vn 0.000000 0.000000 1.000000
vn 0.000000 0.000000 1.000000
vn 0.000000 0.000000 1.000000
vn 0.000000 0.000000 1.000000
vn 0.000000 0.000000 1.000000
vn 0.000000 1.000000 0.000000
vn 0.000000 1.000000 0.000000
vn -0.411450 0.910575 -0.039535
vn -0.413380 0.910332 -0.020308
vn -0.621463 0.781160 -0.059782
vn -0.624401 0.780501 -0.030675
vn 0.000000 -1.000000 0.000000
vn 0.000000 -1.000000 0.000000
vn 0.000000 -1.000000 0.000000
vn 0.000000 -1.000000 0.000000
vn 0.000000 -1.000000 0.000000
vn 0.000000 -1.000000 0.000000
vn -0.998796 0.000000 -0.049068
vn -0.998796 0.000000 -0.049068
vn -0.995572 0.000000 -0.094006
vn -0.995572 0.000000 -0.094006
vn 0.996220 0.000003 0.086867
vn 0.999077 0.000003 0.042966
vn 0.999077 0.000003 0.042966
vn 0.996220 0.000003 0.086867
vn 0.000000 1.000000 0.000000
vn 0.000000 1.000000 0.000000
vn -0.257315 0.915098 -0.310459
vn -0.278447 0.913839 -0.295578
vn -0.386710 0.797893 -0.462410
vn -0.413872 0.797305 -0.439334
vn 1.000000 0.000000 0.000000
vn 1.000000 0.000000 0.000000
vn 1.000000 0.000000 0.000000
vn 1.000000 0.000000 0.000000
vn 1.000000 0.000000 0.000000
vn 1.000000 0.000000 0.000000
vn 0.000000 -1.000000 0.000000
vn 0.000000 -1.000000 0.000000
vn 0.000000 -1.000000 0.000000
vn 0.000000 -1.000000 0.000000
vn 0.000000 -1.000000 0.000000
vn 0.000000 -1.000000 0.000000
vn -0.689128 -0.008510 -0.724590
vn -0.689128 -0.008510 -0.724590
vn -0.644211 -0.009188 -0.764793
vn -0.643584 -0.009197 -0.765321
vn 0.601093 -0.001722 0.799177
vn 0.653845 -0.002377 0.756624
vn 0.653845 -0.002377 0.756624
vn 0.601124 -0.001722 0.799154
vn 0.716156 -0.002158 0.697936
vn 0.716156 -0.002158 0.697936
vn 0.771493 -0.001820 0.636235
vn 0.771487 -0.001820 0.636243
vn 0.000000 -1.000000 0.000000
vn 0.000000 -1.000000 0.000000
vn 0.000000 -1.000000 0.000000
vn 0.000000 -1.000000 0.000000
vn 0.000000 -1.000000 0.000000
vn 0.000000 -1.000000 0.000000
vn -0.791895 -0.005596 -0.610632
vn -0.759305 -0.006704 -0.650700
vn -0.759305 -0.006704 -0.650700
vn -0.791720 -0.005602 -0.610859
vn -0.324860 0.912227 -0.249616
vn -0.311722 0.912424 -0.265165
vn -0.459625 0.797421 -0.390979
vn -0.478244 0.797848 -0.367043
vn 0.000000 1.000000 0.000000
vn 0.000000 1.000000 0.000000
vn 0.889040 -0.000525 0.457829
vn 0.938704 -0.000122 0.344725
vn 0.938704 -0.000122 0.344724
vn 0.889037 -0.000525 0.457835
vn 0.000000 1.000000 0.000000
vn 0.000000 1.000000 0.000000
vn -0.368929 0.911319 -0.182728
vn -0.389590 0.909270 -0.146449
vn -0.547283 0.791558 -0.271877
vn -0.578139 0.786150 -0.218458
vn -0.939204 -0.000193 -0.343360
vn -0.902798 -0.001208 -0.430064
vn -0.902787 -0.001208 -0.430086
vn -0.939204 -0.000193 -0.343360
vn 0.000000 -1.000000 0.000000
vn 0.000000 -1.000000 0.000000
vn 0.000000 -1.000000 0.000000
vn 0.000000 -1.000000 0.000000
vn 0.000000 -1.000000 0.000000
vn 0.000000 -1.000000 0.000000
vn 0.982100 0.000002 0.188358
vn 0.982100 0.000002 0.188358
vn 0.000000 -1.000000 0.000000
vn 0.000000 -1.000000 0.000000
vn 0.000000 -1.000000 0.000000
vn -0.964628 0.000000 -0.263616
vn -0.964628 0.000000 -0.263616
vn -0.400552 0.909645 -0.110017
vn -0.599413 0.783133 -0.165549
vn 0.000000 1.000000 0.000000
vn 0.992107 0.000002 0.125397
vn 0.992107 0.000002 0.125397
vn 0.000000 -1.000000 0.000000
vn 0.000000 -1.000000 0.000000
vn 0.000000 -1.000000 0.000000
vn -0.983485 0.000000 -0.180988
vn -0.983485 0.000000 -0.180988
vn -0.405080 0.911193 -0.075089
vn -0.612913 0.781880 -0.114022
vn 0.000000 1.000000 0.000000
vn 0.849452 -0.001127 0.527665
vn 0.849444 -0.001127 0.527677
vn 0.000000 -1.000000 0.000000
vn 0.000000 -1.000000 0.000000
vn 0.000000 -1.000000 0.000000
vn -0.852053 -0.003254 -0.523445
vn -0.851982 -0.003257 -0.523561
vn -0.346205 0.912878 -0.216322
vn -0.513032 0.796200 -0.320724
vn 0.000000 1.000000 0.000000
vn 0.100007 0.000000 0.994987
vn 0.100007 0.000000 0.994987
vn 0.154271 0.000000 0.988029
vn 0.154271 0.000000 0.988029
vn 0.000000 -1.000000 0.000000
vn 0.000000 -1.000000 0.000000
vn 0.000000 -1.000000 0.000000
vn 0.000000 -1.000000 0.000000
vn 0.000000 -1.000000 0.000000
vn 0.000000 -1.000000 0.000000
vn -0.116118 0.000000 -0.993236
vn -0.073199 0.000000 -0.997317
vn -0.073199 0.000000 -0.997317
vn -0.116118 0.000000 -0.993236
vn -0.049324 0.908925 -0.414033
vn -0.028370 0.908717 -0.416447
vn -0.042333 0.782344 -0.621407
vn -0.073275 0.782929 -0.617780
vn 0.000000 1.000000 0.000000
vn 0.000000 1.000000 0.000000
vn 0.362470 0.000035 0.931996
vn 0.424082 0.000026 0.905624
vn 0.424082 0.000026 0.905624
vn 0.362468 0.000035 0.931996
vn 0.000000 -1.000000 0.000000
vn 0.000000 -1.000000 0.000000
vn 0.000000 -1.000000 0.000000
vn 0.000000 -1.000000 0.000000
vn 0.000000 -1.000000 0.000000
vn 0.000000 -1.000000 0.000000
vn -0.471066 -0.007070 -0.882070
vn -0.379913 -0.002090 -0.925020
vn -0.379913 -0.002090 -0.925020
vn -0.470065 -0.007007 -0.882604
vn -0.182838 0.917608 -0.352940
vn -0.152133 0.916556 -0.369839
vn -0.232392 0.795534 -0.559571
vn -0.279959 0.798011 -0.533669
vn 0.000000 1.000000 0.000000
vn 0.000000 1.000000 0.000000
vn 0.312482 0.000017 0.949924
vn 0.312482 0.000017 0.949924
vn 0.000000 1.000000 0.000000
vn -0.122819 0.914255 -0.386073
vn -0.186712 0.790797 -0.582905
vn -0.291932 0.000000 -0.956439
vn -0.291932 0.000000 -0.956439
vn 0.000000 -1.000000 0.000000
vn 0.000000 -1.000000 0.000000
vn 0.000000 -1.000000 0.000000
vn 0.248562 0.000000 0.968616
vn 0.248562 0.000000 0.968616
vn 0.000000 1.000000 0.000000
vn -0.089096 0.910377 -0.404075
vn -0.133543 0.785623 -0.604121
vn -0.203511 0.000000 -0.979073
vn -0.203511 0.000000 -0.979073
vn 0.000000 -1.000000 0.000000
vn 0.000000 -1.000000 0.000000
vn 0.000000 -1.000000 0.000000
vn 0.504174 -0.000531 0.863602
vn 0.504172 -0.000531 0.863603
vn 0.000000 1.000000 0.000000
vn -0.218868 0.916474 -0.334923
vn -0.332143 0.798188 -0.502571
vn -0.557544 -0.009877 -0.830088
vn -0.556729 -0.009878 -0.830636
vn 0.000000 -1.000000 0.000000
vn 0.000000 -1.000000 0.000000
vn 0.000000 -1.000000 0.000000
s 1
g Inside_Bend_LP
usemtl initialShadingGroup
f 1/13/1 4/14/2 5/15/3 2/16/4
f 2/16/4 5/15/3 6/12/5 3/11/6
s 2
f 4/4/7 37/62/8 42/68/9 5/3/10
f 5/3/10 42/68/9 41/67/11 6/6/12
s 3
f 38/63/13 1/1/14 2/2/15 39/64/16
f 39/64/16 2/2/15 3/5/17 40/65/18
s 4
f 3/20/19 6/6/20 41/67/21 40/66/22
s 5
f 37/62/23 4/4/24 1/1/25 38/63/26
s 6
f 7/21/27 97/132/28 102/138/29 8/22/30
f 8/22/30 102/138/29 101/137/31 9/25/32
s 7
f 13/27/33 16/30/34 17/29/35 14/28/36
f 14/28/36 17/29/35 18/32/37 15/31/38
s 8
f 98/133/39 10/36/40 11/35/41 99/134/42
f 99/134/42 11/35/41 12/38/43 100/135/44
s 9
f 12/39/45 9/25/46 101/137/47 100/136/48
s 10
f 97/132/49 7/21/50 10/36/51 98/133/52
s 5
f 10/9/53 7/17/54 56/84/55 55/83/56
s 3
f 10/9/57 55/83/58 60/89/59 11/8/60
f 11/8/60 60/89/59 59/87/61 12/19/62
s 4
f 58/86/63 9/7/64 12/10/65 59/88/66
s 2
f 57/85/67 8/18/68 9/7/69 58/86/70
f 56/84/71 7/17/72 8/18/68 57/85/67
s 5
f 49/76/73 19/41/74 20/42/75 50/77/76
s 2
f 19/41/77 49/76/78 54/82/79 24/47/80
f 24/47/80 54/82/79 53/81/81 23/46/82
s 4
f 23/46/83 53/81/84 52/80/85 22/45/86
s 3
f 51/78/87 21/43/88 22/44/89 52/79/90
f 50/77/91 20/42/92 21/43/88 51/78/87
s 5
f 19/41/74 44/70/93 43/69/94 20/42/75
s 3
f 20/42/92 43/69/95 48/75/96 21/43/88
f 21/43/88 48/75/96 47/73/97 22/44/89
s 4
f 46/72/98 23/46/83 22/45/86 47/74/99
s 2
f 45/71/100 24/47/80 23/46/82 46/72/101
f 44/70/102 19/41/77 24/47/80 45/71/100
s 5
f 31/55/103 37/62/23 38/63/26 32/56/104
s 3
f 32/56/105 38/63/13 39/64/16 33/57/106
f 33/57/106 39/64/16 40/65/18 34/58/107
s 4
f 41/67/21 35/60/108 34/59/109 40/66/22
s 2
f 42/68/9 36/61/110 35/60/111 41/67/11
f 37/62/8 31/55/112 36/61/110 42/68/9
s 5
f 44/70/93 31/55/103 32/56/104 43/69/94
s 2
f 31/55/112 44/70/102 45/71/100 36/61/110
f 36/61/110 45/71/100 46/72/101 35/60/111
s 4
f 35/60/108 46/72/98 47/74/99 34/59/109
s 3
f 48/75/96 33/57/106 34/58/107 47/73/97
f 43/69/95 32/56/105 33/57/106 48/75/96
s 5
f 26/49/113 49/76/73 50/77/76 25/48/114
s 3
f 25/48/115 50/77/91 51/78/87 30/54/116
f 30/54/116 51/78/87 52/79/90 29/52/117
s 4
f 53/81/84 28/51/118 29/53/119 52/80/85
s 2
f 54/82/79 27/50/120 28/51/121 53/81/81
f 49/76/78 26/49/122 27/50/120 54/82/79
s 5
f 56/84/55 26/49/113 25/48/114 55/83/56
s 2
f 26/49/122 56/84/71 57/85/67 27/50/120
f 27/50/120 57/85/67 58/86/70 28/51/121
s 4
f 28/51/118 58/86/63 59/88/66 29/53/119
s 3
f 60/89/59 30/54/116 29/52/117 59/87/61
f 55/83/58 25/48/115 30/54/116 60/89/59
s 10
f 16/33/123 13/24/124 80/112/125 79/111/126
s 8
f 16/33/127 79/111/128 84/117/129 17/34/130
f 17/34/130 84/117/129 83/115/131 18/37/132
s 9
f 82/114/133 15/26/134 18/40/135 83/116/136
s 6
f 81/113/137 14/23/138 15/26/139 82/114/140
f 80/112/141 13/24/142 14/23/138 81/113/137
s 10
f 61/90/143 92/126/144 91/125/145 62/91/146
s 8
f 62/91/147 91/125/148 96/131/149 63/92/150
f 63/92/150 96/131/149 95/129/151 64/93/152
s 9
f 94/128/153 65/95/154 64/94/155 95/130/156
s 6
f 93/127/157 66/96/158 65/95/159 94/128/160
f 92/126/161 61/90/162 66/96/158 93/127/157
s 10
f 85/118/163 61/90/143 62/91/146 86/119/164
s 6
f 61/90/162 85/118/165 90/124/166 66/96/158
f 66/96/158 90/124/166 89/123/167 65/95/159
s 9
f 65/95/154 89/123/168 88/122/169 64/94/155
s 8
f 87/120/170 63/92/150 64/93/152 88/121/171
f 86/119/172 62/91/147 63/92/150 87/120/170
s 10
f 80/112/125 74/105/173 73/104/174 79/111/126
s 6
f 74/105/175 80/112/141 81/113/137 75/106/176
f 75/106/176 81/113/137 82/114/140 76/107/177
s 9
f 76/107/178 82/114/133 83/116/136 77/109/179
s 8
f 84/117/129 78/110/180 77/108/181 83/115/131
f 79/111/128 73/104/182 78/110/180 84/117/129
s 10
f 74/105/173 85/118/163 86/119/164 73/104/174
s 8
f 73/104/182 86/119/172 87/120/170 78/110/180
f 78/110/180 87/120/170 88/121/171 77/108/181
s 9
f 89/123/168 76/107/178 77/109/179 88/122/169
s 6
f 90/124/166 75/106/176 76/107/177 89/123/167
f 85/118/165 74/105/175 75/106/176 90/124/166
s 10
f 92/126/144 67/97/183 68/98/184 91/125/145
s 6
f 67/97/185 92/126/161 93/127/157 72/103/186
f 72/103/186 93/127/157 94/128/160 71/102/187
s 9
f 71/102/188 94/128/153 95/130/156 70/101/189
s 8
f 96/131/149 69/99/190 70/100/191 95/129/151
f 91/125/148 68/98/192 69/99/190 96/131/149
s 10
f 67/97/183 97/132/49 98/133/52 68/98/184
s 8
f 68/98/192 98/133/39 99/134/42 69/99/190
f 69/99/190 99/134/42 100/135/44 70/100/191
s 9
f 101/137/47 71/102/188 70/101/189 100/136/48
s 6
f 102/138/29 72/103/186 71/102/187 101/137/31
f 97/132/28 67/97/185 72/103/186 102/138/29
